# xmcd
#
# Track frame offsets: 
#        150
#        1967
#        5005
#        20320
#        32982
#        48196
#        55046
#        70260
#        79602
#        86790
#        97480
#        110948
#        126094
#        138059
#        149595
#        167484
#        177744
#        190149
#        202095
#        210956
#        221411
#
# Disc length: 3046 seconds
#
# Revision: 0
# Processed by: cddbd v1.4PL0 Copyright (c) Steve Scherf et al.
# Submitted via: ExactAudioCopy v0.90b4
#
DISCID=300be415
DTITLE=The Kentucky Colonels - Live in Stereo
DYEAR=1965
DGENRE=Bluegrass
TTITLE0=Intro
TTITLE1=Train 45
TTITLE2=Green Corn
TTITLE3=Shuckin' The Corn
TTITLE4=Dark Hollow
TTITLE5=Saw Creek
TTITLE6=All the Good Times
TTITLE7=Soldier's Joy
TTITLE8=You Won't Be Satisfied
TTITLE9=Alabama Jubilee
TTITLE10=Columbus Stockade
TTITLE11=Mockin' Banjo
TTITLE12=Workin' On a Building
TTITLE13=Prisoner's Song
TTITLE14=It Ain't Gonna Rain No More
TTITLE15=Johnson's Ole Gray Mule
TTITLE16=Fair and Tender Ladies
TTITLE17=bluegrass Breakdown
TTITLE18=Long Journey Home
TTITLE19=Howdy Hoss
TTITLE20=Shady Grove
EXTD=
EXTT0=
EXTT1=
EXTT2=
EXTT3=
EXTT4=
EXTT5=
EXTT6=
EXTT7=
EXTT8=
EXTT9=
EXTT10=
EXTT11=
EXTT12=
EXTT13=
EXTT14=
EXTT15=
EXTT16=
EXTT17=
EXTT18=
EXTT19=
EXTT20=
PLAYORDER=
